<svg width="1250" height="306" viewBox="0 0 1250 306" fill="none" xmlns="http://www.w3.org/2000/svg">
<path fill-rule="evenodd" clip-rule="evenodd" d="M162.538 48.0543C162.538 45.3222 164.752 43.1074 167.485 43.1074H414.119C434.023 43.1074 450.16 59.2437 450.16 79.1488V269.956C450.16 289.861 434.023 305.998 414.119 305.998H76.3218C56.4169 305.998 40.2808 289.861 40.2808 269.956V156.178C40.2808 153.446 42.4955 151.232 45.2276 151.232C47.9596 151.232 50.1744 153.446 50.1744 156.178V269.956C50.1744 284.397 61.881 296.104 76.3218 296.104H414.119C428.559 296.104 440.266 284.397 440.266 269.956V79.1488C440.266 64.7078 428.559 53.0011 414.119 53.0011H167.485C164.752 53.0011 162.538 50.7864 162.538 48.0543Z" fill="black"/>
<path d="M398.572 0V262.89H0V0H398.572ZM9.89363 252.996H388.678V9.89371H9.89363V252.996Z" fill="black"/>
<path d="M212.006 158.302C212.006 185.623 189.859 207.771 162.538 207.771C135.218 207.771 113.07 185.623 113.07 158.302C113.07 130.981 135.218 108.834 162.538 108.834C189.859 108.834 212.006 130.981 212.006 158.302Z" fill="black"/>
<path d="M114.483 112.367C114.483 131.492 98.9801 146.995 79.8557 146.995C60.7314 146.995 45.228 131.492 45.228 112.367C45.228 93.2425 60.7314 77.7391 79.8557 77.7391C98.9801 77.7391 114.483 93.2425 114.483 112.367Z" fill="black"/>
<path d="M146.991 67.1387C146.991 78.4572 137.816 87.6328 126.497 87.6328C115.179 87.6328 106.003 78.4572 106.003 67.1387C106.003 55.8201 115.179 46.6445 126.497 46.6445C137.816 46.6445 146.991 55.8201 146.991 67.1387Z" fill="black"/>
<path d="M95.4029 141.341L113.07 111.66C113.07 111.66 113.714 120.697 118.017 122.967C122.268 125.211 130.737 121.554 130.737 121.554L114.483 149.822C114.483 149.822 113.882 142.206 109.537 139.928C105.295 137.705 95.4029 141.341 95.4029 141.341Z" fill="black"/>
<path d="M107.417 70.6721L124.108 87.124C124.108 87.124 116.705 85.9049 113.029 89.0917C109.397 92.2406 110.95 98.2334 110.95 98.2334L93.4193 80.8742C93.4193 80.8742 99.6842 81.8521 103.384 78.6306C106.996 75.4859 107.417 70.6721 107.417 70.6721Z" fill="black"/>
<path d="M588.996 66.401L636.214 200.678L682.94 66.401H718.6L652.445 241.011H619.737L553.336 66.401H588.996Z" fill="black"/>
<path d="M734.039 241.011V112.144H766.993V241.011H734.039ZM734.039 94.191V61.4824H766.993V94.191H734.039Z" fill="black"/>
<path d="M844.186 243.47C833.201 243.47 822.708 241.667 812.707 238.06C802.706 234.453 794.099 229.124 786.885 222.074L798.689 200.678C806.395 206.909 813.937 211.499 821.315 214.451C828.856 217.402 836.07 218.877 842.956 218.877C849.35 218.877 854.433 217.73 858.204 215.434C862.139 213.139 864.106 209.696 864.106 205.105C864.106 201.99 863.04 199.613 860.909 197.973C858.778 196.17 855.662 194.612 851.564 193.301C847.629 191.989 842.792 190.513 837.054 188.874C827.545 185.759 819.593 182.726 813.199 179.774C806.805 176.823 801.968 173.134 798.689 168.708C795.574 164.117 794.017 158.297 794.017 151.247C794.017 142.721 796.148 135.425 800.411 129.359C804.837 123.129 810.904 118.292 818.609 114.849C826.479 111.406 835.66 109.685 846.153 109.685C855.335 109.685 864.024 111.16 872.222 114.111C880.419 116.899 887.879 121.489 894.601 127.883L881.321 148.787C874.763 143.705 868.533 140.016 862.63 137.721C856.728 135.261 850.744 134.032 844.678 134.032C841.235 134.032 837.956 134.441 834.841 135.261C831.889 136.081 829.43 137.475 827.463 139.442C825.659 141.246 824.758 143.869 824.758 147.312C824.758 150.427 825.577 152.886 827.217 154.69C829.02 156.329 831.644 157.805 835.087 159.116C838.693 160.428 843.038 161.904 848.121 163.543C858.45 166.494 867.139 169.527 874.189 172.643C881.403 175.758 886.813 179.611 890.42 184.201C894.027 188.628 895.831 194.776 895.831 202.646C895.831 215.434 891.158 225.435 881.813 232.649C872.467 239.863 859.925 243.47 844.186 243.47Z" fill="black"/>
<path d="M918.245 241.011V112.144H951.199V241.011H918.245ZM918.245 94.191V61.4824H951.199V94.191H918.245Z" fill="black"/>
<path d="M1040.44 243.47C1029.95 243.47 1020.52 241.749 1012.16 238.306C1003.8 234.699 996.667 229.78 990.764 223.55C985.026 217.32 980.599 210.188 977.484 202.154C974.369 194.12 972.812 185.677 972.812 176.823C972.812 167.806 974.369 159.28 977.484 151.247C980.599 143.213 985.026 136.081 990.764 129.851C996.667 123.621 1003.8 118.784 1012.16 115.341C1020.52 111.734 1029.95 109.931 1040.44 109.931C1050.93 109.931 1060.28 111.734 1068.48 115.341C1076.84 118.784 1083.97 123.621 1089.87 129.851C1095.78 136.081 1100.2 143.213 1103.15 151.247C1106.27 159.28 1107.83 167.806 1107.83 176.823C1107.83 185.677 1106.27 194.12 1103.15 202.154C1100.2 210.188 1095.78 217.32 1089.87 223.55C1084.13 229.78 1077.08 234.699 1068.72 238.306C1060.36 241.749 1050.93 243.47 1040.44 243.47ZM1006.75 176.823C1006.75 184.365 1008.23 191.087 1011.18 196.99C1014.13 202.728 1018.14 207.237 1023.23 210.516C1028.31 213.795 1034.05 215.434 1040.44 215.434C1046.67 215.434 1052.33 213.795 1057.41 210.516C1062.49 207.073 1066.51 202.482 1069.46 196.744C1072.58 190.841 1074.13 184.119 1074.13 176.577C1074.13 169.2 1072.58 162.559 1069.46 156.657C1066.51 150.755 1062.49 146.164 1057.41 142.885C1052.33 139.606 1046.67 137.966 1040.44 137.966C1034.05 137.966 1028.31 139.688 1023.23 143.131C1018.14 146.41 1014.13 151.001 1011.18 156.903C1008.23 162.641 1006.75 169.281 1006.75 176.823Z" fill="black"/>
<path d="M1249.84 241.011H1216.88V168.708C1216.88 158.379 1215.08 150.837 1211.47 146.082C1207.86 141.328 1202.86 138.95 1196.47 138.95C1192.04 138.95 1187.53 140.098 1182.94 142.393C1178.52 144.689 1174.5 147.886 1170.89 151.984C1167.29 155.919 1164.66 160.51 1163.02 165.757V241.011H1130.07V112.144H1159.83V135.999C1163.1 130.425 1167.29 125.752 1172.37 121.981C1177.45 118.046 1183.27 115.095 1189.83 113.128C1196.55 110.996 1203.6 109.931 1210.98 109.931C1219.01 109.931 1225.57 111.406 1230.65 114.357C1235.9 117.144 1239.83 120.997 1242.46 125.916C1245.24 130.671 1247.13 136.081 1248.11 142.147C1249.26 148.214 1249.84 154.362 1249.84 160.592V241.011Z" fill="black"/>
<path d="M304.583 204.065C304.583 205.722 303.239 207.065 301.583 207.065L290.622 207.065C288.965 207.065 287.622 205.722 287.622 204.065L287.622 101.767L266.595 101.767C264.938 101.767 263.595 100.424 263.595 98.7673L263.595 87.8066C263.595 86.1498 264.938 84.8066 266.595 84.8066L301.583 84.8066C303.239 84.8066 304.583 86.1498 304.583 87.8066L304.583 204.065Z" fill="black"/>
<path d="M325.609 199.994C327.266 199.994 328.609 201.337 328.609 202.994V213.955C328.609 215.612 327.266 216.955 325.609 216.955H265.181C263.524 216.955 262.181 215.612 262.181 213.955V202.994C262.181 201.337 263.524 199.994 265.181 199.994H325.609Z" fill="black"/>
</svg>
